{
  "accessors": [
    {
      "bufferView": 2,
      "componentType": 5126,
      "count": 16,
      "max": [
        3.042997121810913,
        13.506426811218262,
        6.347560405731201
      ],
      "min": [
        -7.3780131340026855,
        -5.570608139038086,
        -31.635025024414063
      ],
      "type": "VEC3"
    },
    {
      "bufferView": 2,
      "byteOffset": 192,
      "componentType": 5126,
      "count": 16,
      "max": [
        -0.8775984644889832,
        -0.4793963134288788,
        0.0
      ],
      "min": [
        -0.8775985240936279,
        -0.47939643263816833,
        -1.6736764862912423e-08
      ],
      "type": "VEC3"
    },
    {
      "bufferView": 1,
      "componentType": 5126,
      "count": 16,
      "max": [
        0.9703525900840759,
        0.3991023302078247
      ],
      "min": [
        0.6882030963897705,
        0.11695284396409988
      ],
      "type": "VEC2"
    },
    {
      "bufferView": 0,
      "componentType": 5125,
      "count": 36,
      "type": "SCALAR"
    },
    {
      "bufferView": 2,
      "byteOffset": 384,
      "componentType": 5126,
      "count": 892,
      "max": [
        4.085286617279053,
        20.90802001953125,
        6.731086730957031
      ],
      "min": [
        -16.620119094848633,
        -6.382068157196045,
        -31.856748580932617
      ],
      "type": "VEC3"
    },
    {
      "bufferView": 2,
      "byteOffset": 11088,
      "componentType": 5126,
      "count": 892,
      "max": [
        0.9638555645942688,
        0.9919729828834534,
        0.9857506155967712
      ],
      "min": [
        -0.9483822584152222,
        -0.9954086542129517,
        -0.9942425489425659
      ],
      "type": "VEC3"
    },
    {
      "bufferView": 1,
      "byteOffset": 128,
      "componentType": 5126,
      "count": 892,
      "max": [
        0.9782535433769226,
        0.8824343085289001
      ],
      "min": [
        0.0217464417219162,
        0.055835917592048645
      ],
      "type": "VEC2"
    },
    {
      "bufferView": 0,
      "byteOffset": 144,
      "componentType": 5125,
      "count": 1332,
      "type": "SCALAR"
    }
  ],
  "asset": {
    "extras": {
      "author": "Wersaus33 (https://sketchfab.com/wersaus33)",
      "license": "CC-BY-4.0 (http://creativecommons.org/licenses/by/4.0/)",
      "source": "https://sketchfab.com/3d-models/kawasaki-spectre-ps1-low-poly-9c486accf04f41389b8d5ca01968ec06",
      "title": "Kawasaki Spectre - PS1 Low Poly"
    },
    "generator": "Sketchfab-15.12.0",
    "version": "2.0"
  },
  "bufferViews": [
    {
      "buffer": 0,
      "byteLength": 5472,
      "name": "floatBufferViews",
      "target": 34963
    },
    {
      "buffer": 0,
      "byteLength": 7264,
      "byteOffset": 5472,
      "byteStride": 8,
      "name": "floatBufferViews",
      "target": 34962
    },
    {
      "buffer": 0,
      "byteLength": 21792,
      "byteOffset": 12736,
      "byteStride": 12,
      "name": "floatBufferViews",
      "target": 34962
    }
  ],
  "buffers": [
    {
      "byteLength": 34528,
      "uri": "scene.bin"
    }
  ],
  "images": [
    {
      "uri": "textures/Wheel_baseColor.png"
    },
    {
      "uri": "textures/Body_baseColor.jpeg"
    }
  ],
  "materials": [
    {
      "alphaCutoff": 0.6811449330131292,
      "alphaMode": "MASK",
      "doubleSided": true,
      "name": "Wheel",
      "pbrMetallicRoughness": {
        "baseColorTexture": {
          "index": 0
        },
        "metallicFactor": 0.0,
        "roughnessFactor": 0.8211145618000169
      }
    },
    {
      "doubleSided": true,
      "name": "Body",
      "pbrMetallicRoughness": {
        "baseColorTexture": {
          "index": 1
        },
        "metallicFactor": 0.0,
        "roughnessFactor": 0.8211145618000169
      }
    }
  ],
  "meshes": [
    {
      "name": "Cylinder.002_Wheel_0",
      "primitives": [
        {
          "attributes": {
            "NORMAL": 1,
            "POSITION": 0,
            "TEXCOORD_0": 2
          },
          "indices": 3,
          "material": 0,
          "mode": 4
        }
      ]
    },
    {
      "name": "Cylinder.002_Body_0",
      "primitives": [
        {
          "attributes": {
            "NORMAL": 5,
            "POSITION": 4,
            "TEXCOORD_0": 6
          },
          "indices": 7,
          "material": 1,
          "mode": 4
        }
      ]
    }
  ],
  "nodes": [
    {
      "children": [
        1
      ],
      "matrix": [
        1.0,
        0.0,
        0.0,
        0.0,
        0.0,
        2.220446049250313e-16,
        -1.0,
        0.0,
        0.0,
        1.0,
        2.220446049250313e-16,
        0.0,
        0.0,
        0.0,
        0.0,
        1.0
      ],
      "name": "Sketchfab_model"
    },
    {
      "children": [
        2
      ],
      "matrix": [
        0.009999999776482582,
        0.0,
        0.0,
        0.0,
        0.0,
        0.0,
        0.009999999776482582,
        0.0,
        0.0,
        -0.009999999776482582,
        0.0,
        0.0,
        0.0,
        0.0,
        0.0,
        1.0
      ],
      "name": "0a61a946544a4c00b54f2ac670e5315f.fbx"
    },
    {
      "children": [
        3
      ],
      "name": "RootNode"
    },
    {
      "children": [
        4,
        5
      ],
      "matrix": [
        4.124420510548051,
        -11.453761702452704,
        -22.28560588344126,
        0.0,
        -7.550297637903347,
        20.967623498411623,
        -12.173721767988681,
        0.0,
        23.892046632880056,
        8.603362073559268,
        -5.321303038596968e-07,
        0.0,
        332.75823974609375,
        80.65602111816406,
        -5.107250690460205,
        1.0
      ],
      "name": "Cylinder.002"
    },
    {
      "mesh": 0,
      "name": "Cylinder.002_Wheel_0"
    },
    {
      "mesh": 1,
      "name": "Cylinder.002_Body_0"
    }
  ],
  "samplers": [
    {
      "magFilter": 9728,
      "minFilter": 9728,
      "wrapS": 10497,
      "wrapT": 10497
    }
  ],
  "scene": 0,
  "scenes": [
    {
      "name": "Sketchfab_Scene",
      "nodes": [
        0
      ]
    }
  ],
  "textures": [
    {
      "sampler": 0,
      "source": 0
    },
    {
      "sampler": 0,
      "source": 1
    }
  ]
}
