{
  "accessors": [
    {
      "bufferView": 2,
      "componentType": 5126,
      "count": 409,
      "max": [
        3.718400239944458,
        1.026995062828064,
        1.0
      ],
      "min": [
        -2.3466320037841797,
        -1.0229579210281372,
        -1.34818434715271
      ],
      "type": "VEC3"
    },
    {
      "bufferView": 2,
      "byteOffset": 4908,
      "componentType": 5126,
      "count": 409,
      "max": [
        0.988359272480011,
        1.0,
        1.0
      ],
      "min": [
        -0.9983660578727722,
        -1.0,
        -1.0
      ],
      "type": "VEC3"
    },
    {
      "bufferView": 1,
      "componentType": 5126,
      "count": 409,
      "max": [
        0.9837823510169983,
        0.9621353149414063
      ],
      "min": [
        0.011677533388137817,
        8.34842212498188e-05
      ],
      "type": "VEC2"
    },
    {
      "bufferView": 0,
      "componentType": 5125,
      "count": 696,
      "type": "SCALAR"
    }
  ],
  "asset": {
    "extras": {
      "author": "Wersaus33 (https://sketchfab.com/wersaus33)",
      "license": "CC-BY-4.0 (http://creativecommons.org/licenses/by/4.0/)",
      "source": "https://sketchfab.com/3d-models/suzuki-grand-vitara-ps1-low-poly-03e3db7b0d4a42d5a52f6740a3d5657d",
      "title": "Suzuki Grand Vitara - PS1 Low Poly"
    },
    "generator": "Sketchfab-15.9.0",
    "version": "2.0"
  },
  "bufferViews": [
    {
      "buffer": 0,
      "byteLength": 2784,
      "name": "floatBufferViews",
      "target": 34963
    },
    {
      "buffer": 0,
      "byteLength": 3272,
      "byteOffset": 2784,
      "byteStride": 8,
      "name": "floatBufferViews",
      "target": 34962
    },
    {
      "buffer": 0,
      "byteLength": 9816,
      "byteOffset": 6056,
      "byteStride": 12,
      "name": "floatBufferViews",
      "target": 34962
    }
  ],
  "buffers": [
    {
      "byteLength": 15872,
      "uri": "scene.bin"
    }
  ],
  "extensionsUsed": [
    "KHR_materials_specular"
  ],
  "images": [
    {
      "uri": "textures/Body_baseColor.jpeg"
    }
  ],
  "materials": [
    {
      "doubleSided": true,
      "extensions": {
        "KHR_materials_specular": {
          "specularColorFactor": [
            1.0,
            1.0,
            1.0
          ],
          "specularFactor": 0.0
        }
      },
      "name": "Body",
      "pbrMetallicRoughness": {
        "baseColorTexture": {
          "index": 0
        },
        "metallicFactor": 0.0,
        "roughnessFactor": 0.8211145618000169
      }
    }
  ],
  "meshes": [
    {
      "name": "Cube_Body_0",
      "primitives": [
        {
          "attributes": {
            "NORMAL": 1,
            "POSITION": 0,
            "TEXCOORD_0": 2
          },
          "indices": 3,
          "material": 0,
          "mode": 4
        }
      ]
    }
  ],
  "nodes": [
    {
      "children": [
        1
      ],
      "matrix": [
        1.0,
        0.0,
        0.0,
        0.0,
        0.0,
        2.220446049250313e-16,
        -1.0,
        0.0,
        0.0,
        1.0,
        2.220446049250313e-16,
        0.0,
        0.0,
        0.0,
        0.0,
        1.0
      ],
      "name": "Sketchfab_model"
    },
    {
      "children": [
        2
      ],
      "matrix": [
        0.009999999776482582,
        0.0,
        0.0,
        0.0,
        0.0,
        0.0,
        0.009999999776482582,
        0.0,
        0.0,
        -0.009999999776482582,
        0.0,
        0.0,
        0.0,
        0.0,
        0.0,
        1.0
      ],
      "name": "bb7cb20f75bb432b9d752676ff9938b9.fbx"
    },
    {
      "children": [
        3
      ],
      "name": "RootNode"
    },
    {
      "children": [
        4
      ],
      "matrix": [
        239.7987060546875,
        0.0,
        0.0,
        0.0,
        -0.0,
        -4.367325276781387e-05,
        -268.0645141601527,
        0.0,
        0.0,
        239.79870605468435,
        -3.9068168107711765e-05,
        0.0,
        -186.17117309570313,
        411.5361633300781,
        5.5293527111643925e-05,
        1.0
      ],
      "name": "Cube"
    },
    {
      "mesh": 0,
      "name": "Cube_Body_0"
    }
  ],
  "samplers": [
    {
      "magFilter": 9728,
      "minFilter": 9728,
      "wrapS": 10497,
      "wrapT": 10497
    }
  ],
  "scene": 0,
  "scenes": [
    {
      "name": "Sketchfab_Scene",
      "nodes": [
        0
      ]
    }
  ],
  "textures": [
    {
      "sampler": 0,
      "source": 0
    }
  ]
}
